<mxfile host="65bd71144e">
    <diagram id="8GY0JJ6lYnh75jCdiSrQ" name="Page-1">
        <mxGraphModel dx="1670" dy="440" grid="1" gridSize="10" guides="1" tooltips="1" connect="1" arrows="1" fold="1" page="1" pageScale="1" pageWidth="850" pageHeight="1100" math="0" shadow="0">
            <root>
                <mxCell id="0"/>
                <mxCell id="1" parent="0"/>
                <mxCell id="2" value="" style="rounded=0;whiteSpace=wrap;html=1;fillColor=#f5f5f5;strokeColor=#666666;fontColor=#333333;" parent="1" vertex="1">
                    <mxGeometry x="-140" y="50" width="840" height="690" as="geometry"/>
                </mxCell>
                <mxCell id="4" value="Merch Control" style="rounded=0;whiteSpace=wrap;html=1;fillColor=#647687;strokeColor=#314354;fontColor=#ffffff;horizontal=1;verticalAlign=top;" parent="1" vertex="1">
                    <mxGeometry x="100" y="110" width="590" height="420" as="geometry"/>
                </mxCell>
                <mxCell id="3" value="Header" style="rounded=0;whiteSpace=wrap;html=1;fillColor=#647687;strokeColor=#314354;fontColor=#ffffff;" parent="1" vertex="1">
                    <mxGeometry x="100" y="60" width="590" height="40" as="geometry"/>
                </mxCell>
                <mxCell id="Gqr7CwR1k1SWUV-VYypd-4" value="MerchList" style="whiteSpace=wrap;html=1;rounded=0;fontColor=#ffffff;strokeColor=#314354;fillColor=#647687;verticalAlign=top;" parent="1" vertex="1">
                    <mxGeometry x="115" y="140" width="345" height="350" as="geometry"/>
                </mxCell>
                <mxCell id="Tao-QJFWcb7m0B3lwmEy-11" value="" style="group" parent="1" vertex="1" connectable="0">
                    <mxGeometry x="130" y="160" width="310" height="100" as="geometry"/>
                </mxCell>
                <mxCell id="Tao-QJFWcb7m0B3lwmEy-7" value="Item" style="rounded=0;whiteSpace=wrap;html=1;fillColor=#647687;strokeColor=#314354;verticalAlign=top;fontColor=#ffffff;" parent="Tao-QJFWcb7m0B3lwmEy-11" vertex="1">
                    <mxGeometry width="310" height="100" as="geometry"/>
                </mxCell>
                <mxCell id="Tao-QJFWcb7m0B3lwmEy-4" value="Update/Delete buttons for each item" style="rounded=1;whiteSpace=wrap;html=1;fillColor=#f5f5f5;strokeColor=#666666;fontColor=#333333;" parent="Tao-QJFWcb7m0B3lwmEy-11" vertex="1">
                    <mxGeometry x="15" y="70" width="280" height="20" as="geometry"/>
                </mxCell>
                <mxCell id="Tao-QJFWcb7m0B3lwmEy-5" value="Item Details" style="rounded=1;whiteSpace=wrap;html=1;fillColor=#f5f5f5;strokeColor=#666666;fontColor=#333333;" parent="Tao-QJFWcb7m0B3lwmEy-11" vertex="1">
                    <mxGeometry x="15" y="30" width="280" height="20" as="geometry"/>
                </mxCell>
                <mxCell id="Tao-QJFWcb7m0B3lwmEy-12" value="" style="group" parent="1" vertex="1" connectable="0">
                    <mxGeometry x="130" y="270" width="310" height="100" as="geometry"/>
                </mxCell>
                <mxCell id="Tao-QJFWcb7m0B3lwmEy-13" value="Item" style="rounded=0;whiteSpace=wrap;html=1;fillColor=#647687;strokeColor=#314354;verticalAlign=top;fontColor=#ffffff;" parent="Tao-QJFWcb7m0B3lwmEy-12" vertex="1">
                    <mxGeometry width="310" height="100" as="geometry"/>
                </mxCell>
                <mxCell id="Tao-QJFWcb7m0B3lwmEy-14" value="Update/Delete buttons for each item" style="rounded=1;whiteSpace=wrap;html=1;fillColor=#f5f5f5;strokeColor=#666666;fontColor=#333333;" parent="Tao-QJFWcb7m0B3lwmEy-12" vertex="1">
                    <mxGeometry x="15" y="70" width="280" height="20" as="geometry"/>
                </mxCell>
                <mxCell id="Tao-QJFWcb7m0B3lwmEy-15" value="Item Details" style="rounded=1;whiteSpace=wrap;html=1;fillColor=#f5f5f5;strokeColor=#666666;fontColor=#333333;" parent="Tao-QJFWcb7m0B3lwmEy-12" vertex="1">
                    <mxGeometry x="15" y="30" width="280" height="20" as="geometry"/>
                </mxCell>
                <mxCell id="Tao-QJFWcb7m0B3lwmEy-16" value="" style="group" parent="1" vertex="1" connectable="0">
                    <mxGeometry x="130" y="380" width="310" height="100" as="geometry"/>
                </mxCell>
                <mxCell id="Tao-QJFWcb7m0B3lwmEy-17" value="Item" style="rounded=0;whiteSpace=wrap;html=1;fillColor=#647687;strokeColor=#314354;verticalAlign=top;fontColor=#ffffff;" parent="Tao-QJFWcb7m0B3lwmEy-16" vertex="1">
                    <mxGeometry width="310" height="100" as="geometry"/>
                </mxCell>
                <mxCell id="Tao-QJFWcb7m0B3lwmEy-18" value="Update/Delete buttons for each item" style="rounded=1;whiteSpace=wrap;html=1;fillColor=#f5f5f5;strokeColor=#666666;fontColor=#333333;" parent="Tao-QJFWcb7m0B3lwmEy-16" vertex="1">
                    <mxGeometry x="15" y="70" width="280" height="20" as="geometry"/>
                </mxCell>
                <mxCell id="Tao-QJFWcb7m0B3lwmEy-19" value="Item Details" style="rounded=1;whiteSpace=wrap;html=1;fillColor=#f5f5f5;strokeColor=#666666;fontColor=#333333;" parent="Tao-QJFWcb7m0B3lwmEy-16" vertex="1">
                    <mxGeometry x="15" y="30" width="280" height="20" as="geometry"/>
                </mxCell>
                <mxCell id="Tao-QJFWcb7m0B3lwmEy-20" value="Cart" style="rounded=0;whiteSpace=wrap;html=1;verticalAlign=top;fillColor=#647687;strokeColor=#314354;fontColor=#ffffff;" parent="1" vertex="1">
                    <mxGeometry x="470" y="140" width="210" height="350" as="geometry"/>
                </mxCell>
                <mxCell id="5" value="Add Item" style="rounded=1;whiteSpace=wrap;html=1;fillColor=#f5f5f5;strokeColor=#666666;fontColor=#333333;" vertex="1" parent="1">
                    <mxGeometry x="225" y="500" width="120" height="20" as="geometry"/>
                </mxCell>
                <mxCell id="8" value="" style="edgeStyle=none;html=1;entryX=0.5;entryY=0;entryDx=0;entryDy=0;strokeColor=#000000;" edge="1" parent="1" source="5" target="6">
                    <mxGeometry relative="1" as="geometry">
                        <mxPoint x="460" y="770" as="sourcePoint"/>
                    </mxGeometry>
                </mxCell>
                <mxCell id="6" value="New Item form" style="rounded=0;whiteSpace=wrap;html=1;fillColor=#647687;strokeColor=#314354;fontColor=#ffffff;" vertex="1" parent="1">
                    <mxGeometry x="182.5" y="560" width="205" height="170" as="geometry"/>
                </mxCell>
                <mxCell id="7" value="Edit item form" style="rounded=0;whiteSpace=wrap;html=1;fillColor=#647687;strokeColor=#314354;fontColor=#ffffff;" vertex="1" parent="1">
                    <mxGeometry x="-130" y="375" width="205" height="170" as="geometry"/>
                </mxCell>
                <mxCell id="9" value="" style="edgeStyle=none;html=1;strokeColor=#000000;" edge="1" parent="1" source="Tao-QJFWcb7m0B3lwmEy-18" target="7">
                    <mxGeometry relative="1" as="geometry"/>
                </mxCell>
            </root>
        </mxGraphModel>
    </diagram>
</mxfile>